<svg xmlns="http://www.w3.org/2000/svg" viewBox="447.92 409.11 914.78 914.78">
<g transform="translate(0.000000,1728.000000) scale(0.100000,-0.100000)"
fill="#0e6476" stroke="none">
<path d="M6845 12832 c-133 -46 -222 -150 -261 -306 l-16 -66 -138 0 -138 0
-6 -32 c-3 -18 -8 -76 -11 -128 -3 -52 -14 -194 -25 -315 -11 -121 -31 -355
-45 -520 -14 -165 -34 -387 -44 -493 -16 -184 -16 -195 1 -222 9 -16 26 -34
37 -39 13 -8 262 -11 781 -11 l762 0 29 29 c16 16 29 40 29 53 0 26 -20 261
-51 587 -12 118 -22 244 -24 280 -2 36 -14 172 -25 301 -12 129 -27 296 -33
370 l-12 135 -146 3 -146 3 -6 50 c-12 99 -74 203 -157 264 -98 72 -244 95
-355 57z m220 -161 c68 -30 135 -124 135 -187 l0 -24 -235 0 -235 0 6 28 c19
77 75 152 139 185 42 22 140 21 190 -2z"/>
<path d="M8205 12450 c-11 -4 -31 -20 -45 -35 l-25 -27 -3 -771 c-2 -425 0
-792 3 -816 5 -30 16 -54 35 -73 l28 -28 1712 0 1712 0 29 29 c16 16 29 39 29
51 0 29 -105 233 -184 358 -262 413 -651 765 -1111 1006 -313 165 -707 284
-1005 305 -171 13 -1146 13 -1175 1z"/>
<path d="M6210 10412 c-74 -36 -70 11 -68 -914 3 -823 3 -827 24 -855 l21 -28
788 0 788 0 21 28 c21 28 21 32 24 855 2 772 1 829 -15 862 -37 73 -2 70 -818
70 -675 0 -733 -1 -765 -18z m1055 -393 c77 -14 111 -32 130 -69 30 -58 14
-132 -43 -192 l-26 -28 -357 0 -358 0 -40 57 c-46 63 -53 110 -25 169 20 41
43 56 104 65 77 11 552 10 615 -2z m115 -735 c68 -61 77 -150 23 -214 -50 -60
-50 -60 -423 -60 -355 0 -363 1 -406 44 -32 32 -41 57 -42 113 0 61 23 104 70
133 31 19 51 20 385 20 l353 0 40 -36z"/>
<path d="M10014 10416 c-49 -22 -50 -57 -4 -174 22 -55 47 -138 55 -184 9 -45
26 -121 37 -168 60 -244 27 -739 -68 -1010 -65 -186 -72 -247 -29 -264 9 -3
427 -6 930 -6 l913 0 11 44 c6 25 11 66 11 93 0 26 7 71 16 98 22 73 72 476
78 645 4 80 2 181 -3 225 -30 251 -56 421 -72 464 -6 14 -15 51 -20 81 -4 30
-19 81 -31 113 l-23 57 -885 0 c-721 -1 -891 -3 -916 -14z m1398 -974 l33 -32
0 -179 c0 -264 23 -251 -436 -251 -453 0 -429 -14 -429 251 0 175 0 178 25
208 14 16 36 32 48 34 12 3 181 4 374 3 l353 -1 32 -33z"/>
<path d="M6191 8284 c-54 -38 -51 63 -51 -1941 0 -1749 1 -1860 18 -1893 36
-73 1 -70 817 -70 816 0 781 -3 817 70 17 33 18 144 18 1893 0 2004 3 1903
-51 1941 -21 14 -97 16 -784 16 -687 0 -763 -2 -784 -16z m1367 -278 c15 -8
41 -28 57 -46 l30 -31 3 -568 2 -567 -22 -34 c-37 -54 -73 -75 -128 -75 -55 0
-91 21 -128 75 l-22 34 2 567 3 567 25 28 c57 61 121 80 178 50z m-187 -2939
c95 -64 87 -207 -13 -256 -43 -20 -57 -21 -376 -21 -277 0 -339 3 -369 15 -53
22 -69 40 -83 90 -18 65 -6 113 41 157 l40 38 363 0 c362 0 363 0 397 -23z"/>
<path d="M8180 7391 c0 -820 2 -909 16 -915 9 -3 54 -6 100 -6 l84 0 0 915 0
915 -100 0 -100 0 0 -909z"/>
<path d="M8420 7385 l0 -915 30 0 30 0 0 915 0 915 -30 0 -30 0 0 -915z"/>
<path d="M8602 7388 l3 -913 53 -3 52 -3 0 915 0 916 -55 0 -55 0 2 -912z"/>
<path d="M8842 7388 l3 -913 48 -3 47 -3 0 915 0 916 -50 0 -50 0 2 -912z"/>
<path d="M8982 7390 c2 -501 7 -910 11 -910 4 0 14 0 22 0 13 0 15 108 15 910
l0 910 -26 0 -26 0 4 -910z"/>
<path d="M9080 7389 l0 -911 23 6 c12 3 34 6 50 6 l27 0 0 905 0 905 -50 0
-50 0 0 -911z"/>
<path d="M9310 7405 l0 -895 25 0 25 0 0 895 0 895 -25 0 -25 0 0 -895z"/>
<path d="M9500 7425 c0 -693 3 -875 13 -875 6 0 29 3 50 6 l37 7 0 868 0 869
-50 0 -50 0 0 -875z"/>
<path d="M9640 7435 c0 -519 4 -865 9 -865 43 0 41 -39 41 871 l0 859 -25 0
-25 0 0 -865z"/>
<path d="M9830 7464 c0 -758 1 -836 16 -830 9 3 20 6 25 6 5 0 9 333 9 830 l0
830 -25 0 -25 0 0 -836z"/>
<path d="M9920 7480 c0 -529 3 -820 10 -820 5 0 28 7 50 16 l40 16 0 804 0
804 -50 0 -50 0 0 -820z"/>
<path d="M10060 7505 c0 -437 3 -795 6 -795 3 0 14 5 25 10 19 10 19 30 19
795 l0 785 -25 0 -25 0 0 -795z"/>
<path d="M10150 7525 c0 -426 3 -775 6 -775 3 0 14 5 25 10 19 10 19 30 19
775 l0 765 -25 0 -25 0 0 -775z"/>
<path d="M10250 7550 c0 -412 2 -750 5 -750 2 0 34 16 70 36 l65 36 0 714 0
714 -70 0 -70 0 0 -750z"/>
<path d="M10480 7610 l0 -690 25 16 c14 9 28 27 31 39 3 12 3 211 0 441 -2
230 -5 524 -5 652 l-1 232 -25 0 -25 0 0 -690z"/>
<path d="M10580 7646 c0 -361 4 -656 8 -656 5 0 16 8 26 18 15 17 16 73 14
653 l-3 634 -22 3 -23 3 0 -655z"/>
<path d="M10670 7675 c0 -344 3 -625 6 -625 3 0 37 24 74 53 l69 52 1 573 0
572 -75 0 -75 0 0 -625z"/>
<path d="M10910 7770 c0 -291 3 -530 6 -530 3 0 35 28 70 62 l64 61 0 469 0
468 -70 0 -70 0 0 -530z"/>
<path d="M11140 7880 l0 -421 25 18 24 18 1 403 0 402 -25 0 -25 0 0 -420z"/>
<path d="M11230 7928 l1 -373 49 55 50 55 0 318 0 317 -50 0 -50 0 0 -372z"/>
<path d="M11420 8054 c0 -276 -1 -273 65 -164 l35 58 0 176 0 176 -50 0 -50 0
0 -246z"/>
<path d="M11560 8163 l1 -138 29 55 c25 48 29 66 30 138 l0 82 -30 0 -30 0 0
-137z"/>
<path d="M8125 8257 c-13 -20 -15 -133 -15 -859 -1 -825 -1 -836 19 -869 l21
-34 0 893 c0 490 -2 892 -5 892 -2 0 -11 -10 -20 -23z"/>
<path d="M11653 8230 c0 -25 2 -35 4 -22 2 12 2 32 0 45 -2 12 -4 2 -4 -23z"/>
</g>
</svg>
